<?xml version="1.0" encoding="UTF-8" standalone="no"?>
<svg
   xmlns:dc="http://purl.org/dc/elements/1.1/"
   xmlns:cc="http://creativecommons.org/ns#"
   xmlns:rdf="http://www.w3.org/1999/02/22-rdf-syntax-ns#"
   xmlns:svg="http://www.w3.org/2000/svg"
   xmlns="http://www.w3.org/2000/svg"
   viewBox="0 0 64 64"
   version="1.1"
   id="svg4830"
   height="64"
   width="64">
  <defs
     id="defs4832" />
  <metadata
     id="metadata4835">
    <rdf:RDF>
      <cc:Work
         rdf:about="">
        <dc:format>image/svg+xml</dc:format>
        <dc:type
           rdf:resource="http://purl.org/dc/dcmitype/StillImage" />
        <dc:title></dc:title>
      </cc:Work>
    </rdf:RDF>
  </metadata>
  <g
     id="layer1">
    <path
       id="path4201"
       d="m 0,47.626317 0,-16.373668 3.9169639,-6.126327 3.9169638,-6.126325 6.7339683,0 6.733966,0 1.738138,1.375 1.738138,1.375 -7.353569,0 -7.353566,0 -2.6355034,4.126946 C 5.9859764,28.146764 4.8,30.059263 4.8,30.126943 c 0,0.06768 12.239999,0.123053 27.2,0.123053 14.960002,0 27.199999,-0.05537 27.199999,-0.123053 0,-0.06768 -1.185972,-1.980179 -2.635499,-4.25 l -2.635499,-4.126946 -8.15357,0 -8.153568,0 1.738137,-1.375 1.738138,-1.375 7.53397,0 7.533964,0 3.916967,6.126325 L 64,31.252649 64,47.626317 64,64 32,64 0,64 0,47.626317 Z m 60.48,-0.501333 0,-14.124988 -28.48,0 -28.4799999,0 0,14.124988 0,14.125017 28.4799999,0 28.48,0 0,-14.125017 z M 17.573312,56.594801 C 15.29999,54.837495 13.44,53.224375 13.44,53.010109 c 0,-0.505813 13.130905,-10.760111 13.778603,-10.760111 0.504572,0 8.621397,6.244399 8.621397,6.632559 0,0.276987 -12.771762,10.323017 -13.546687,10.655577 -0.497565,0.21352 -1.214583,-0.2336 -4.720001,-2.943333 z m 10.350025,-3.034853 c 3.122166,-2.442027 5.676662,-4.553738 5.676662,-4.692697 0,-0.138987 -1.290106,-1.25592 -2.866901,-2.48208 -1.961108,-1.525013 -2.91805,-2.11576 -3.028775,-1.869787 -0.08902,0.197787 -0.60802,1.765867 -1.15333,3.484613 -0.545305,1.718746 -1.162357,3.258512 -1.371229,3.421685 C 24.970896,51.584855 23,52.066935 20.8,52.492962 c -2.199999,0.426 -4.207131,0.831467 -4.460294,0.90104 -0.314863,0.08648 0.44131,0.834106 2.393327,2.366213 1.569495,1.231866 3.002125,2.239786 3.183629,2.239786 0.181504,0 2.884505,-1.998026 6.006675,-4.440053 z m -7.283336,-2.332746 c 1.583997,-0.299173 3.040658,-0.669573 3.237017,-0.823093 0.320983,-0.250934 2.112866,-5.432858 1.928479,-5.576911 -0.04195,-0.03277 -2.157356,1.57888 -4.700891,3.581439 -2.543534,2.002538 -4.336605,3.578352 -3.984606,3.501764 0.352001,-0.07656 1.935998,-0.383999 3.520001,-0.683199 z m 15.915721,-5.376697 c -3.906464,-3.932321 -5.76328,-5.994267 -5.600001,-6.21864 0.386209,-0.53072 8.936418,-5.631869 9.439779,-5.631869 0.525008,0 12.187364,11.634855 12.029757,12.001389 -0.178838,0.415919 -9.035862,5.736804 -9.545257,5.73435 -0.263998,0 -3.109925,-2.649604 -6.324278,-5.88523 z m 9.927399,2.399492 c 1.699652,-1.031253 3.096263,-1.932826 3.103577,-2.003493 0.0074,-0.07069 -1.83994,-0.673733 -4.105021,-1.340133 -2.265078,-0.6664 -4.288636,-1.293867 -4.496797,-1.394374 -0.216634,-0.104586 -0.610741,-1.718453 -0.921672,-3.774239 -0.298765,-1.975333 -0.666985,-3.584105 -0.818271,-3.575064 -0.67753,0.04056 -6.301843,3.692291 -6.153121,3.995065 0.264423,0.538346 9.905654,10.104749 10.111597,10.033123 0.104189,-0.03624 1.580057,-0.909632 3.279708,-1.940885 z m -1.099984,-7.651439 c -2.166941,-2.173146 -3.975485,-3.787437 -4.018988,-3.587358 -0.0435,0.20008 0.100502,1.527385 0.32001,2.949572 l 0.399108,2.585759 3.518365,1.061947 c 1.935103,0.584053 3.564052,1.034773 3.619887,1.001573 0.05584,-0.03317 -1.671438,-1.838373 -3.838382,-4.011493 z m -22.295189,-15.098561 0.33466,-0.75 3.328699,0 c 1.830779,0 3.328693,-0.08558 3.328693,-0.190179 0,-0.1046 -2.519999,-2.156517 -5.6,-4.559821 -3.080001,-2.403303 -5.6,-4.48404 -5.6,-4.623858 C 18.88,14.977624 38.188534,0 38.702281,0 c 0.739499,0 12.177718,9.0307186 12.177718,9.6145696 0,0.3314338 -3.244171,3.0429064 -9.357963,7.8213644 l -9.357967,7.314063 4.245887,0 4.245885,0 0.312082,0.641274 c 0.171642,0.352702 0.312077,0.6902 0.312077,0.75 0,0.0598 -4.168506,0.108726 -9.263353,0.108726 l -9.263353,0 0.334654,-0.75 z M 39.757735,16.314301 C 44.290983,12.774667 48,9.7636705 48,9.6231936 48,9.238188 39.784738,2.9123275 39.606617,3.1601782 c -0.08491,0.1181519 -0.841991,2.4085703 -1.682395,5.0898205 -0.8404,2.6812503 -1.689153,5.0008973 -1.886112,5.1547733 -0.19696,0.153874 -3.166109,0.817335 -6.59811,1.474356 -3.431997,0.657022 -6.304965,1.238128 -6.38437,1.291349 -0.1519,0.101811 8.017192,6.57952 8.297488,6.57952 0.0893,0 3.871372,-2.896064 8.404617,-6.435696 z M 29.047381,13.091433 c 2.591942,-0.499712 4.873937,-1.034089 5.071098,-1.187501 0.383334,-0.298275 2.855014,-7.8517273 2.627454,-8.0295059 -0.07453,-0.05823 -3.079541,2.1962023 -6.677798,5.0098498 -3.598253,2.8136481 -6.360276,5.1157221 -6.137829,5.1157221 0.222447,0 2.525133,-0.408856 5.117075,-0.908565 z"
       style="fill:#000000" />
  </g>
</svg>
